<svg xmlns="http://www.w3.org/2000/svg" viewBox="0 0 1280 720">
  <defs>
    <linearGradient id="bg" x1="0%" y1="0%" x2="100%" y2="100%">
      <stop offset="0%" style="stop-color:#0f0f1a"/>
      <stop offset="100%" style="stop-color:#1a1a2e"/>
    </linearGradient>
    <linearGradient id="accent" x1="0%" y1="0%" x2="100%" y2="100%">
      <stop offset="0%" style="stop-color:#6c5ce7"/>
      <stop offset="100%" style="stop-color:#00cec9"/>
    </linearGradient>
  </defs>
  
  <!-- Background -->
  <rect width="1280" height="720" fill="url(#bg)"/>
  
  <!-- Header -->
  <rect x="0" y="0" width="1280" height="60" fill="#1a1a2e"/>
  <text x="640" y="38" font-family="Arial, sans-serif" font-size="24" font-weight="bold" fill="#a29bfe" text-anchor="middle">Rhizome Thinking</text>
  
  <!-- Sidebar -->
  <rect x="0" y="60" width="280" height="660" fill="#1a1a2e"/>
  <rect x="20" y="80" width="240" height="40" rx="8" fill="#252542"/>
  <text x="40" y="105" font-family="Arial, sans-serif" font-size="14" fill="#606070">输入语义锚点...</text>
  
  <!-- Search results area -->
  <rect x="300" y="80" width="960" height="620" fill="#0f0f1a"/>
  
  <!-- Result cards -->
  <rect x="320" y="100" width="460" height="120" rx="10" fill="#252542"/>
  <rect x="340" y="120" width="300" height="16" rx="4" fill="#a29bfe"/>
  <rect x="340" y="145" width="420" height="12" rx="3" fill="#606070"/>
  <rect x="340" y="165" width="380" height="12" rx="3" fill="#606070"/>
  <rect x="340" y="185" width="200" height="12" rx="3" fill="#606070"/>
  
  <rect x="800" y="100" width="460" height="120" rx="10" fill="#252542"/>
  <rect x="820" y="120" width="280" height="16" rx="4" fill="#00cec9"/>
  <rect x="820" y="145" width="420" height="12" rx="3" fill="#606070"/>
  <rect x="820" y="165" width="360" height="12" rx="3" fill="#606070"/>
  <rect x="820" y="185" width="240" height="12" rx="3" fill="#606070"/>
  
  <rect x="320" y="240" width="460" height="120" rx="10" fill="#252542"/>
  <rect x="340" y="260" width="320" height="16" rx="4" fill="#00b894"/>
  <rect x="340" y="285" width="420" height="12" rx="3" fill="#606070"/>
  <rect x="340" y="305" width="400" height="12" rx="3" fill="#606070"/>
  <rect x="340" y="325" width="180" height="12" rx="3" fill="#606070"/>
  
  <rect x="800" y="240" width="460" height="120" rx="10" fill="#252542"/>
  <rect x="820" y="260" width="290" height="16" rx="4" fill="#fdcb6e"/>
  <rect x="820" y="285" width="420" height="12" rx="3" fill="#606070"/>
  <rect x="820" y="305" width="380" height="12" rx="3" fill="#606070"/>
  <rect x="820" y="325" width="220" height="12" rx="3" fill="#606070"/>
  
  <!-- Decorative elements -->
  <circle cx="280" cy="200" r="3" fill="#6c5ce7" opacity="0.5"/>
  <circle cx="290" cy="350" r="2" fill="#00cec9" opacity="0.5"/>
  <circle cx="275" cy="500" r="4" fill="#a29bfe" opacity="0.3"/>
  
  <!-- Bottom nav -->
  <rect x="0" y="660" width="1280" height="60" fill="#1a1a2e"/>
  <rect x="100" y="675" width="80" height="30" rx="15" fill="#6c5ce7"/>
  <rect x="300" y="675" width="80" height="30" rx="15" fill="#252542"/>
  <rect x="500" y="675" width="80" height="30" rx="15" fill="#252542"/>
  <rect x="700" y="675" width="80" height="30" rx="15" fill="#252542"/>
  <rect x="900" y="675" width="80" height="30" rx="15" fill="#252542"/>
  <rect x="1100" y="675" width="80" height="30" rx="15" fill="#252542"/>
</svg>