<svg xmlns="http://www.w3.org/2000/svg" viewBox="0 0 390 844">
  <defs>
    <linearGradient id="bg" x1="0%" y1="0%" x2="100%" y2="100%">
      <stop offset="0%" style="stop-color:#0f0f1a"/>
      <stop offset="100%" style="stop-color:#1a1a2e"/>
    </linearGradient>
    <linearGradient id="accent" x1="0%" y1="0%" x2="100%" y2="100%">
      <stop offset="0%" style="stop-color:#6c5ce7"/>
      <stop offset="100%" style="stop-color:#00cec9"/>
    </linearGradient>
  </defs>
  
  <!-- Phone frame -->
  <rect x="0" y="0" width="390" height="844" rx="40" fill="#000"/>
  <rect x="10" y="10" width="370" height="824" rx="30" fill="url(#bg)"/>
  
  <!-- Status bar -->
  <rect x="10" y="10" width="370" height="44" fill="#1a1a2e"/>
  <text x="195" y="40" font-family="Arial, sans-serif" font-size="16" font-weight="600" fill="#e8e8f0" text-anchor="middle">9:41</text>
  
  <!-- Header -->
  <rect x="10" y="54" width="370" height="56" fill="#1a1a2e"/>
  <text x="195" y="90" font-family="Arial, sans-serif" font-size="18" font-weight="bold" fill="#a29bfe" text-anchor="middle">Rhizome</text>
  
  <!-- Search bar -->
  <rect x="25" y="125" width="340" height="44" rx="12" fill="#252542"/>
  <text x="45" y="153" font-family="Arial, sans-serif" font-size="14" fill="#606070">输入语义锚点...</text>
  <circle cx="345" cy="147" r="14" fill="#6c5ce7"/>
  
  <!-- Tags -->
  <rect x="25" y="185" width="60" height="28" rx="14" fill="#6c5ce7"/>
  <text x="55" y="204" font-family="Arial, sans-serif" font-size="12" fill="#fff" text-anchor="middle">全部</text>
  
  <rect x="95" y="185" width="90" height="28" rx="14" fill="#252542"/>
  <text x="140" y="204" font-family="Arial, sans-serif" font-size="12" fill="#a0a0b0" text-anchor="middle">明确结论</text>
  
  <rect x="195" y="185" width="90" height="28" rx="14" fill="#252542"/>
  <text x="240" y="204" font-family="Arial, sans-serif" font-size="12" fill="#a0a0b0" text-anchor="middle">推断结论</text>
  
  <rect x="25" y="223" width="60" height="28" rx="14" fill="#252542"/>
  <text x="55" y="242" font-family="Arial, sans-serif" font-size="12" fill="#a0a0b0" text-anchor="middle">模糊</text>
  
  <!-- Result cards -->
  <rect x="25" y="265" width="340" height="100" rx="12" fill="#252542"/>
  <rect x="40" y="280" width="220" height="14" rx="3" fill="#a29bfe"/>
  <rect x="40" y="305" width="310" height="10" rx="2" fill="#606070"/>
  <rect x="40" y="322" width="290" height="10" rx="2" fill="#606070"/>
  <rect x="40" y="339" width="150" height="10" rx="2" fill="#606070"/>
  
  <rect x="25" y="380" width="340" height="100" rx="12" fill="#252542"/>
  <rect x="40" y="395" width="200" height="14" rx="3" fill="#00cec9"/>
  <rect x="40" y="420" width="310" height="10" rx="2" fill="#606070"/>
  <rect x="40" y="437" width="280" height="10" rx="2" fill="#606070"/>
  <rect x="40" y="454" width="180" height="10" rx="2" fill="#606070"/>
  
  <rect x="25" y="495" width="340" height="100" rx="12" fill="#252542"/>
  <rect x="40" y="510" width="180" height="14" rx="3" fill="#00b894"/>
  <rect x="40" y="535" width="310" height="10" rx="2" fill="#606070"/>
  <rect x="40" y="552" width="270" height="10" rx="2" fill="#606070"/>
  <rect x="40" y="569" width="200" height="10" rx="2" fill="#606070"/>
  
  <!-- Bottom nav -->
  <rect x="10" y="754" width="370" height="80" fill="#1a1a2e"/>
  <circle cx="75" cy="784" r="16" fill="#6c5ce7"/>
  <circle cx="165" cy="784" r="12" fill="#606070"/>
  <circle cx="255" cy="784" r="12" fill="#606070"/>
  <circle cx="345" cy="784" r="12" fill="#606070"/>
  
  <!-- Home indicator -->
  <rect x="125" y="815" width="140" height="5" rx="2.5" fill="#fff"/>
</svg>